<?xml version="1.0" encoding="UTF-8"?><!DOCTYPE svg PUBLIC "-//W3C//DTD SVG 1.1//EN" "http://www.w3.org/Graphics/SVG/1.1/DTD/svg11.dtd"><svg version="1.1" width="128" height="128" viewBox="0 0 512 512" fill="#5A5B5C" xmlns="http://www.w3.org/2000/svg"><path d="M452.055 91.383C403.258 33.305 331.797 0 256 0 136.523 0 31.336 84.609 5.891 201.18c-3.766 17.266 7.172 34.313 24.445 38.086 2.297 0.5 4.594 0.742 6.852 0.742 14.719 0 27.969-10.219 31.234-25.188C87.492 127.43 166.383 64 256 64c56.852 0 110.445 24.984 147.055 68.555 11.367 13.531 31.555 15.281 45.086 3.914C461.672 125.102 463.422 104.914 452.055 91.383z"/><path d="m480 224c-17.672 0-32 14.328-32 32v112c0 17.672 14.328 32 32 32s32-14.328 32-32v-112c0-17.672-14.328-32-32-32z"/><path d="m256 112c-37.914 0-73.703 14.609-100.773 41.133-12.617 12.375-12.828 32.633-0.461 45.258 12.383 12.609 32.633 12.828 45.258 0.461 15.031-14.735 34.914-22.852 55.976-22.852 44.109 0 80 35.891 80 80v176c0 17.672 14.328 32 32 32s32-14.328 32-32v-176c0-79.398-64.602-144-144-144z"/><path d="m144 224c-17.672 0-32 14.328-32 32v176c0 17.672 14.328 32 32 32s32-14.328 32-32v-176c0-17.672-14.328-32-32-32z"/><path d="m32 272c-17.672 0-32 14.328-32 32v64c0 17.672 14.328 32 32 32s32-14.328 32-32v-64c0-17.672-14.328-32-32-32z"/><path d="m256 384c-17.672 0-32 14.328-32 32v64c0 17.672 14.328 32 32 32s32-14.328 32-32v-64c0-17.672-14.328-32-32-32z"/><path d="m256 224c-17.672 0-32 14.328-32 32v64c0 17.672 14.328 32 32 32s32-14.328 32-32v-64c0-17.672-14.328-32-32-32z"/></svg>